<?xml version="1.0" encoding="UTF-8" standalone="yes"?>
<!DOCTYPE svg PUBLIC "-//W3C//DTD SVG 1.1//EN" "http://www.w3.org/Graphics/SVG/1.1/DTD/svg11.dtd">

<svg width="547" height="90" viewBox="0 0 547 90" xmlns="http://www.w3.org/2000/svg" xmlns:xlink="http://www.w3.org/1999/xlink" version="1.1" baseProfile="full">
    <g transform="scale(1,-1) translate(0,-90)">
        <path d="M 89.022017 138.104774 L 139.898540 2.052950 L 102.932077 2.052950 L 94.547931 26.443193 L 47.101287 26.443193 L 38.526592 2.052950 L 2.131776 2.052950 L 53.008299 138.104774 Z M 55.294884 52.738923 L 86.163785 52.738923 L 71.110432 100.376117 L 70.729335 100.376117 Z M 182.200367 138.104774 L 205.066220 95.802946 L 229.265914 138.104774 L 269.662254 138.104774 L 225.645487 73.508740 L 273.663778 2.052950 L 230.599756 2.052950 L 205.066220 47.403558 L 177.246099 2.052950 L 136.468662 2.052950 L 184.868050 73.508740 L 140.470186 138.104774 Z" transform="scale(0.480000,0.480000) translate(864.583299,22.916666)" fill="#821825" opacity="1.000000"></path>
        <path d="M 182.883801 39.466434 L 182.883801 150.050785 L 183.022806 150.174147 L 182.883801 150.327024 L 182.883801 188.074374 L 162.332495 188.074374 L 154.725423 181.317816 L 154.720394 181.323276 L 92.115502 125.717858 L 29.510610 181.323344 L 29.505638 181.317816 L 21.898577 188.074374 L 1.347209 188.074374 L 1.347209 150.327024 L 1.208322 150.174147 L 1.347209 150.050785 L 1.347209 39.466434 L 43.435963 2.083333 L 43.435963 112.667744 L 92.115439 69.430764 L 92.115439 69.430639 L 140.794984 112.667562 L 140.794984 2.083333 Z" transform="scale(0.480000,0.480000) translate(670.833307,-2.083333)" fill="#821825" opacity="1.000000"></path>
        <path d="M 41.166665 113.183028 L 41.166665 4.058032 L 70.604164 4.058032 L 70.604164 113.183028 L 110.729162 113.183028 L 110.729162 137.933027 L 1.041667 137.933027 L 1.041667 113.183028 Z M 126.104162 137.933027 L 126.104162 4.058032 L 227.729158 4.058032 L 227.729158 28.808031 L 155.541661 28.808031 L 155.541661 61.620530 L 220.416658 61.620530 L 220.416658 84.495529 L 155.541661 84.495529 L 155.541661 113.183028 L 226.229158 113.183028 L 226.229158 137.933027 Z M 336.854154 92.933029 L 365.354153 92.933029 Q 364.041653 104.558028 358.979153 113.558028 Q 353.916653 122.558028 346.135403 128.651777 Q 338.354154 134.745527 328.510404 137.933027 Q 318.666655 141.120527 307.604155 141.120527 Q 292.229156 141.120527 279.947906 135.683027 Q 267.666656 130.245527 259.229157 120.683028 Q 250.791657 111.120528 246.291657 98.276778 Q 241.791657 85.433029 241.791657 70.433030 Q 241.791657 55.808030 246.291657 43.151781 Q 250.791657 30.495531 259.229157 21.120531 Q 267.666656 11.745532 279.947906 6.401782 Q 292.229156 1.058032 307.604155 1.058032 Q 319.979154 1.058032 330.291654 4.808032 Q 340.604154 8.558032 348.291653 15.683032 Q 355.979153 22.808031 360.666653 32.933031 Q 365.354153 43.058031 366.479153 55.620530 L 337.979154 55.620530 Q 336.291654 42.120531 328.697904 33.870531 Q 321.104154 25.620531 307.604155 25.620531 Q 297.666655 25.620531 290.729156 29.464281 Q 283.791656 33.308031 279.479156 39.683031 Q 275.166656 46.058030 273.197906 54.026780 Q 271.229156 61.995530 271.229156 70.433030 Q 271.229156 79.245529 273.197906 87.495529 Q 275.166656 95.745529 279.479156 102.214278 Q 283.791656 108.683028 290.729156 112.526778 Q 297.666655 116.370528 307.604155 116.370528 Q 313.041655 116.370528 318.010405 114.589278 Q 322.979154 112.808028 326.916654 109.620528 Q 330.854154 106.433028 333.479154 102.214278 Q 336.104154 97.995528 336.854154 92.933029 Z M 386.541652 137.933027 L 386.541652 4.058032 L 415.979151 4.058032 L 415.979151 61.808030 L 470.166649 61.808030 L 470.166649 4.058032 L 499.604148 4.058032 L 499.604148 137.933027 L 470.166649 137.933027 L 470.166649 86.558029 L 415.979151 86.558029 L 415.979151 137.933027 Z M 549.104146 70.433030 Q 549.104146 79.245529 551.072896 87.495529 Q 553.041646 95.745529 557.354145 102.214278 Q 561.666645 108.683028 568.604145 112.526778 Q 575.541645 116.370528 585.479144 116.370528 Q 595.416644 116.370528 602.354144 112.526778 Q 609.291643 108.683028 613.604143 102.214278 Q 617.916643 95.745529 619.885393 87.495529 Q 621.854143 79.245529 621.854143 70.433030 Q 621.854143 61.995530 619.885393 54.026780 Q 617.916643 46.058030 613.604143 39.683031 Q 609.291643 33.308031 602.354144 29.464281 Q 595.416644 25.620531 585.479144 25.620531 Q 575.541645 25.620531 568.604145 29.464281 Q 561.666645 33.308031 557.354145 39.683031 Q 553.041646 46.058030 551.072896 54.026780 Q 549.104146 61.995530 549.104146 70.433030 Z M 519.666647 70.433030 Q 519.666647 55.808030 524.166647 43.151781 Q 528.666646 30.495531 537.104146 21.120531 Q 545.541646 11.745532 557.822895 6.401782 Q 570.104145 1.058032 585.479144 1.058032 Q 601.041644 1.058032 613.229143 6.401782 Q 625.416643 11.745532 633.854142 21.120531 Q 642.291642 30.495531 646.791642 43.151781 Q 651.291642 55.808030 651.291642 70.433030 Q 651.291642 85.433029 646.791642 98.276778 Q 642.291642 111.120528 633.854142 120.683028 Q 625.416643 130.245527 613.229143 135.683027 Q 601.041644 141.120527 585.479144 141.120527 Q 570.104145 141.120527 557.822895 135.683027 Q 545.541646 130.245527 537.104146 120.683028 Q 528.666646 111.120528 524.166647 98.276778 Q 519.666647 85.433029 519.666647 70.433030 Z" transform="scale(0.480000,0.480000) translate(0.000000,24.999999)" fill="#000000" opacity="1.000000"></path>
    </g>
</svg>